<svg height="512pt" viewBox="0 0 512 512.00152" width="512pt" xmlns="http://www.w3.org/2000/svg"><g fill-rule="evenodd"><path d="m230 502c121.171875 0 220-98.824219 220-219.996094s-98.828125-220-220-220-220 98.828125-220 220 98.828125 219.996094 220 219.996094zm0 0" fill="#808080"/><path d="m230 462c99.140625 0 180-80.855469 180-179.996094s-80.859375-180-180-180-180 80.859375-180 180 80.859375 179.996094 180 179.996094zm0 0" fill="#fff"/><path d="m230 422.003906c77.109375 0 140-62.890625 140-140s-62.890625-140-140-140-140 62.890625-140 140 62.890625 140 140 140zm0 0" fill="#00c9af"/><path d="m230 382.003906c55.078125 0 100-44.921875 100-100s-44.921875-100-100-100-100 44.921875-100 100 44.921875 100 100 100zm0 0" fill="#ffba4a"/><path d="m445.433594 10.003906 11.953125 44.613282-60.613281 60.613281-11.953126-44.613281zm0 0" fill="#aa836d"/><path d="m502 66.570312-44.613281-11.953124-60.613281 60.613281 44.613281 11.953125zm0 0" fill="#aa836d"/><path d="m230 322.003906c22.03125 0 40-17.96875 40-40s-17.96875-40-40-40-40 17.96875-40 40 17.96875 40 40 40zm0 0" fill="#fd4848"/></g><path d="m438.800781 136.84375c.851563.226562 1.722657.339844 2.585938.339844 2.617187 0 5.171875-1.027344 7.070312-2.929688l60.613281-60.613281c2.527344-2.527344 3.515626-6.207031 2.589844-9.660156-.925781-3.449219-3.621094-6.144531-7.070312-7.070313l-39.039063-10.460937-10.460937-39.035157c-.921875-3.453124-3.617188-6.148437-7.070313-7.074218-3.453125-.925782-7.132812.0625-9.660156 2.589844l-60.613281 60.613281c-2.527344 2.527343-3.511719 6.207031-2.585938 9.660156l10.457032 39.035156-.214844.21875c-42.519532-39.054687-97.3125-60.453125-155.402344-60.453125-55.703125 0-109.472656 20.191406-151.402344 56.859375-4.15625 3.632813-4.582031 9.953125-.945312 14.109375 3.636718 4.15625 9.953125 4.582032 14.109375.945313 38.289062-33.480469 87.378906-51.917969 138.238281-51.917969 54.304688 0 103.863281 20.722656 141.183594 54.675781l-14.160156 14.15625c-33.679688-30.335937-78.230469-48.832031-127.023438-48.832031-104.765625 0-190 85.234375-190 190s85.234375 190 190 190 190-85.234375 190-190c0-48.792969-18.496094-93.34375-48.832031-127.023438l14.15625-14.160156c33.953125 37.320313 54.675781 86.875 54.675781 141.183594 0 115.792969-94.207031 210-210 210s-210-94.207031-210-210c0-36.8125 9.730469-73.121094 28.136719-105 2.761719-4.78125 1.121093-10.898438-3.660157-13.660156-4.78125-2.761719-10.898437-1.121094-13.660156 3.660156-20.160156 34.917969-30.816406 74.683594-30.816406 115.003906 0 61.433594 23.925781 119.191406 67.367188 162.632813 43.441406 43.441406 101.199218 67.363281 162.632812 67.363281s119.191406-23.921875 162.632812-67.363281c43.441407-43.441407 67.367188-101.199219 67.367188-162.632813 0-58.089844-21.402344-112.882812-60.453125-155.402344l.214844-.21875zm-.402343-20.8125-22.308594-5.976562 44.285156-44.285157 22.308594 5.976563zm1.855468-86.710938 5.976563 22.308594-44.28125 44.28125-5.976563-22.304687zm-40.253906 252.683594c0 93.738282-76.261719 169.996094-170 169.996094s-170-76.257812-170-169.996094c0-93.738281 76.261719-170 170-170 43.277344 0 82.824219 16.265625 112.863281 42.992188l-14.160156 14.160156c-26.394531-23.121094-60.941406-37.152344-98.703125-37.152344-82.710938 0-150 67.289063-150 150 0 82.707032 67.289062 150 150 150 36.460938 0 71.628906-13.257812 99.015625-37.328125 4.148437-3.644531 4.558594-9.964843.914063-14.113281-3.648438-4.148438-9.964844-4.554688-14.113282-.910156-23.738281 20.859375-54.214844 32.351562-85.816406 32.351562-71.683594 0-130-58.320312-130-130 0-71.683594 58.320312-130 130-130 32.25 0 61.789062 11.808594 84.535156 31.320313l-14.183594 14.183593c-19.082031-15.914062-43.617187-25.503906-70.351562-25.503906-60.652344 0-110 49.34375-110 110 0 60.652344 49.347656 110 110 110s110-49.347656 110-110c0-26.734375-9.589844-51.269531-25.507812-70.351562l14.183593-14.183594c19.515625 22.746094 31.324219 52.285156 31.324219 84.535156 0 13.707032-2.15625 27.269532-6.410156 40.304688-1.710938 5.253906 1.15625 10.898437 6.410156 12.609375 5.25 1.710937 10.894531-1.15625 12.605469-6.40625 4.90625-15.042969 7.394531-30.6875 7.394531-46.507813 0-37.765625-14.035156-72.308594-37.152344-98.707031l14.160156-14.160156c26.726563 30.042969 42.992188 69.585937 42.992188 112.867187zm-140 0c0 16.539063-13.457031 30-30 30s-30-13.460937-30-30c0-16.542968 13.457031-30 30-30 4.625 0 9.007812 1.054688 12.925781 2.929688l-19.996093 19.996094c-3.90625 3.90625-3.90625 10.238281 0 14.144531 1.953124 1.953125 4.511718 2.929687 7.070312 2.929687s5.117188-.976562 7.070312-2.929687l19.996094-19.996094c1.878906 3.914063 2.933594 8.296875 2.933594 12.925781zm-2.449219-41.695312c-7.90625-5.242188-17.375-8.304688-27.550781-8.304688-27.570312 0-50 22.429688-50 49.996094 0 27.570312 22.429688 50 50 50s50-22.429688 50-50c0-10.175781-3.0625-19.644531-8.304688-27.550781l28.589844-28.589844c12.328125 15.402344 19.714844 34.925781 19.714844 56.140625 0 49.628906-40.375 90-90 90s-90-40.371094-90-90c0-49.625 40.375-89.996094 90-89.996094 21.21875 0 40.742188 7.382813 56.144531 19.710938zm0 0"/><path d="m49.519531 155.742188c1.820313 1.414062 3.976563 2.097656 6.117188 2.097656 2.988281 0 5.941406-1.332032 7.910156-3.875l.203125-.257813c3.367188-4.375 2.554688-10.65625-1.824219-14.027343-4.375-3.367188-10.652343-2.554688-14.023437 1.820312l-.164063.210938c-3.378906 4.367187-2.585937 10.648437 1.78125 14.03125zm0 0"/><path d="m360 354c0 5.523438-4.476562 10-10 10s-10-4.476562-10-10c0-5.519531 4.476562-10 10-10s10 4.480469 10 10zm0 0"/></svg>