<svg height="512pt" viewBox="0 0 512 512.002" width="512pt" xmlns="http://www.w3.org/2000/svg"><g fill-rule="evenodd"><path d="M230 502c121.172 0 220-98.824 220-219.996s-98.828-220-220-220-220 98.828-220 220S108.828 502 230 502zm0 0" fill="gray"/><path d="M230 462c99.14 0 180-80.855 180-179.996s-80.86-180-180-180-180 80.86-180 180S130.86 462 230 462zm0 0" fill="#fff"/><path d="M230 422.004c77.11 0 140-62.89 140-140s-62.89-140-140-140-140 62.89-140 140 62.89 140 140 140zm0 0" fill="#00c9af"/><path d="M230 382.004c55.078 0 100-44.922 100-100s-44.922-100-100-100-100 44.922-100 100 44.922 100 100 100zm0 0" fill="#ffba4a"/><path d="M445.434 10.004l11.953 44.613-60.614 60.613-11.953-44.613zm0 0" fill="#aa836d"/><path d="M502 66.57l-44.613-11.953-60.614 60.613 44.614 11.954zm0 0" fill="#aa836d"/><path d="M230 322.004c22.031 0 40-17.969 40-40s-17.969-40-40-40-40 17.969-40 40 17.969 40 40 40zm0 0" fill="#fd4848"/></g><path d="M438.8 136.844a9.986 9.986 0 0 0 9.656-2.59l60.614-60.613a9.997 9.997 0 0 0-4.48-16.73l-39.04-10.462-10.46-39.035a9.997 9.997 0 1 0-16.73-4.484l-60.614 60.613a9.995 9.995 0 0 0-2.586 9.66l10.457 39.035-.215.219C342.882 73.402 288.09 52.004 230 52.004a229.93 229.93 0 0 0-151.402 56.86c-4.157 3.632-4.582 9.952-.946 14.109 3.637 4.156 9.953 4.582 14.11.945A209.947 209.947 0 0 1 230 72c54.305 0 103.863 20.723 141.184 54.676l-14.16 14.156C323.343 110.496 278.792 92 230 92 125.234 92 40 177.234 40 282s85.234 190 190 190 190-85.234 190-190c0-48.793-18.496-93.344-48.832-127.023l14.156-14.16C419.277 178.136 440 227.69 440 282c0 115.793-94.207 210-210 210S20 397.793 20 282c0-36.813 9.73-73.121 28.137-105 2.761-4.781 1.12-10.898-3.66-13.66-4.782-2.762-10.899-1.121-13.66 3.66A230.308 230.308 0 0 0 0 282.004c0 61.434 23.926 119.191 67.367 162.633C110.81 488.078 168.567 512 230 512s119.191-23.922 162.633-67.363C436.074 401.195 460 343.437 460 282.004c0-58.09-21.402-112.883-60.453-155.402l.215-.22zm-.402-20.813l-22.308-5.976 44.285-44.285 22.309 5.976zm1.856-86.71l5.976 22.308-44.28 44.281-5.977-22.305zM400 282.003C400 375.742 323.738 452 230 452S60 375.742 60 282.004c0-93.738 76.262-170 170-170 43.277 0 82.824 16.266 112.863 42.992l-14.16 14.16c-26.394-23.12-60.941-37.152-98.703-37.152-82.71 0-150 67.289-150 150 0 82.707 67.29 150 150 150 36.46 0 71.629-13.258 99.016-37.328 4.148-3.645 4.558-9.965.914-14.113-3.649-4.149-9.965-4.555-14.114-.91A129.95 129.95 0 0 1 230 412.002c-71.684 0-130-58.32-130-130 0-71.683 58.32-130 130-130 32.25 0 61.79 11.81 84.535 31.321l-14.183 14.184c-19.082-15.914-43.618-25.504-70.352-25.504-60.652 0-110 49.344-110 110 0 60.652 49.348 110 110 110s110-49.348 110-110c0-26.734-9.59-51.27-25.508-70.352l14.184-14.183C348.19 220.215 360 249.754 360 282.004a129.72 129.72 0 0 1-6.41 40.305c-1.711 5.254 1.156 10.898 6.41 12.609 5.25 1.71 10.895-1.156 12.605-6.406A149.744 149.744 0 0 0 380 282.004c0-37.766-14.035-72.309-37.152-98.707l14.16-14.16C383.734 199.18 400 238.723 400 282.004zm-140 0c0 16.539-13.457 30-30 30s-30-13.461-30-30c0-16.543 13.457-30 30-30 4.625 0 9.008 1.055 12.926 2.93L222.93 274.93c-3.907 3.906-3.907 10.238 0 14.144 1.953 1.953 4.511 2.93 7.07 2.93s5.117-.977 7.07-2.93l19.996-19.996A29.786 29.786 0 0 1 260 282.004zm-2.45-41.695a49.693 49.693 0 0 0-27.55-8.305c-27.57 0-50 22.43-50 49.996 0 27.57 22.43 50 50 50s50-22.43 50-50a49.693 49.693 0 0 0-8.305-27.55l28.59-28.59C312.613 241.261 320 260.784 320 282c0 49.629-40.375 90-90 90s-90-40.371-90-90c0-49.625 40.375-89.996 90-89.996 21.219 0 40.742 7.383 56.145 19.71zm0 0"/><path d="M49.52 155.742a9.938 9.938 0 0 0 6.117 2.098 9.975 9.975 0 0 0 7.91-3.875l.203-.258c3.367-4.375 2.555-10.656-1.824-14.027-4.375-3.368-10.653-2.555-14.024 1.82l-.164.21c-3.379 4.368-2.586 10.65 1.782 14.032zM360 354c0 5.523-4.477 10-10 10s-10-4.477-10-10c0-5.52 4.477-10 10-10s10 4.48 10 10zm0 0"/></svg>